<mxfile host="app.diagrams.net" modified="2023-09-14T14:12:03.270Z" agent="Mozilla/5.0 (X11; Linux x86_64; rv:109.0) Gecko/20100101 Firefox/116.0" etag="DUhsh2hrj8hMG0mt966R" version="21.7.5" type="device">
  <diagram name="Pagina-1" id="kumYzLdFxswHpxGSofa_">
    <mxGraphModel dx="1031" dy="555" grid="1" gridSize="10" guides="1" tooltips="1" connect="1" arrows="1" fold="1" page="1" pageScale="1" pageWidth="827" pageHeight="1169" math="0" shadow="0">
      <root>
        <mxCell id="0" />
        <mxCell id="1" parent="0" />
        <mxCell id="oN_BqNAo0fl2t6OaSe7R-1" value="" style="rounded=0;whiteSpace=wrap;html=1;fillStyle=auto;fillColor=#647687;fontColor=#ffffff;strokeColor=#314354;" vertex="1" parent="1">
          <mxGeometry x="89" y="190" width="650" height="220" as="geometry" />
        </mxCell>
        <mxCell id="oN_BqNAo0fl2t6OaSe7R-2" value="" style="shape=card;whiteSpace=wrap;html=1;fillColor=#fa6800;strokeColor=#C73500;fontColor=#000000;" vertex="1" parent="1">
          <mxGeometry x="140" y="250" width="80" height="100" as="geometry" />
        </mxCell>
        <mxCell id="oN_BqNAo0fl2t6OaSe7R-3" value="" style="shape=card;whiteSpace=wrap;html=1;fillColor=#fa6800;strokeColor=#C73500;fontColor=#000000;" vertex="1" parent="1">
          <mxGeometry x="290" y="250" width="80" height="100" as="geometry" />
        </mxCell>
        <mxCell id="oN_BqNAo0fl2t6OaSe7R-4" value="" style="shape=card;whiteSpace=wrap;html=1;fillColor=#fa6800;strokeColor=#C73500;fontColor=#000000;" vertex="1" parent="1">
          <mxGeometry x="440" y="250" width="80" height="100" as="geometry" />
        </mxCell>
        <mxCell id="oN_BqNAo0fl2t6OaSe7R-5" value="" style="shape=card;whiteSpace=wrap;html=1;fillColor=#fa6800;fontColor=#000000;strokeColor=#C73500;" vertex="1" parent="1">
          <mxGeometry x="590" y="250" width="80" height="100" as="geometry" />
        </mxCell>
        <mxCell id="oN_BqNAo0fl2t6OaSe7R-6" value="&lt;div&gt;&lt;font style=&quot;font-size: 29px;&quot;&gt;train&lt;/font&gt;&lt;/div&gt;" style="text;html=1;strokeColor=none;fillColor=none;align=center;verticalAlign=middle;whiteSpace=wrap;rounded=0;" vertex="1" parent="1">
          <mxGeometry x="100" y="200" width="130" height="40" as="geometry" />
        </mxCell>
        <mxCell id="oN_BqNAo0fl2t6OaSe7R-7" value="FD0001" style="text;html=1;strokeColor=none;fillColor=none;align=center;verticalAlign=middle;whiteSpace=wrap;rounded=0;" vertex="1" parent="1">
          <mxGeometry x="150" y="290" width="60" height="30" as="geometry" />
        </mxCell>
        <mxCell id="oN_BqNAo0fl2t6OaSe7R-8" value="FD0002" style="text;html=1;strokeColor=none;fillColor=none;align=center;verticalAlign=middle;whiteSpace=wrap;rounded=0;" vertex="1" parent="1">
          <mxGeometry x="300" y="290" width="60" height="30" as="geometry" />
        </mxCell>
        <mxCell id="oN_BqNAo0fl2t6OaSe7R-9" value="FD0003" style="text;html=1;strokeColor=none;fillColor=none;align=center;verticalAlign=middle;whiteSpace=wrap;rounded=0;" vertex="1" parent="1">
          <mxGeometry x="450" y="290" width="60" height="30" as="geometry" />
        </mxCell>
        <mxCell id="oN_BqNAo0fl2t6OaSe7R-10" value="FD0004" style="text;html=1;strokeColor=none;fillColor=none;align=center;verticalAlign=middle;whiteSpace=wrap;rounded=0;" vertex="1" parent="1">
          <mxGeometry x="600" y="290" width="60" height="30" as="geometry" />
        </mxCell>
      </root>
    </mxGraphModel>
  </diagram>
</mxfile>
